<mxfile host="Electron" agent="Mozilla/5.0 (Windows NT 10.0; Win64; x64) AppleWebKit/537.36 (KHTML, like Gecko) draw.io/24.7.17 Chrome/128.0.6613.36 Electron/32.0.1 Safari/537.36" version="24.7.17">
  <diagram name="Página-1" id="DSl8dxC4RtlP7eox9A5Q">
    <mxGraphModel dx="2087" dy="993" grid="1" gridSize="10" guides="1" tooltips="1" connect="1" arrows="1" fold="1" page="0" pageScale="1" pageWidth="827" pageHeight="1169" math="0" shadow="0">
      <root>
        <mxCell id="0" />
        <mxCell id="1" parent="0" />
        <mxCell id="tPMUMzXMLzgHDQSlWnDX-1" value="" style="rounded=0;whiteSpace=wrap;html=1;fillColor=#0A0A0A;" parent="1" vertex="1">
          <mxGeometry x="358" y="540" width="150" height="80" as="geometry" />
        </mxCell>
        <mxCell id="tPMUMzXMLzgHDQSlWnDX-2" value="1. Sessão de Produto&lt;div&gt;2. Sessão de Análise&lt;/div&gt;&lt;div&gt;3. Registrar Venda&lt;/div&gt;&lt;div&gt;0. Sair do Programa&lt;/div&gt;&lt;div&gt;Opção:&amp;nbsp;&lt;/div&gt;" style="text;html=1;align=left;verticalAlign=middle;whiteSpace=wrap;rounded=0;fontColor=#F5F5F5;" parent="1" vertex="1">
          <mxGeometry x="370" y="565" width="150" height="30" as="geometry" />
        </mxCell>
        <mxCell id="tPMUMzXMLzgHDQSlWnDX-3" value="" style="endArrow=classic;html=1;rounded=0;entryX=0.553;entryY=1.013;entryDx=0;entryDy=0;entryPerimeter=0;" parent="1" target="tPMUMzXMLzgHDQSlWnDX-5" edge="1">
          <mxGeometry width="50" height="50" relative="1" as="geometry">
            <mxPoint x="436" y="540" as="sourcePoint" />
            <mxPoint x="390" y="400" as="targetPoint" />
          </mxGeometry>
        </mxCell>
        <mxCell id="tPMUMzXMLzgHDQSlWnDX-4" value="&lt;b&gt;&lt;font style=&quot;font-size: 17px;&quot;&gt;1&lt;/font&gt;&lt;/b&gt;" style="text;html=1;align=center;verticalAlign=middle;whiteSpace=wrap;rounded=0;" parent="1" vertex="1">
          <mxGeometry x="396" y="450" width="60" height="30" as="geometry" />
        </mxCell>
        <mxCell id="tPMUMzXMLzgHDQSlWnDX-5" value="" style="rounded=0;whiteSpace=wrap;html=1;fillColor=#0A0A0A;" parent="1" vertex="1">
          <mxGeometry x="306" y="310" width="150" height="80" as="geometry" />
        </mxCell>
        <mxCell id="tPMUMzXMLzgHDQSlWnDX-6" value="1. Registrar Produto&lt;div&gt;2. Editar Produto&lt;/div&gt;&lt;div&gt;3. Deletar Produto&lt;/div&gt;&lt;div&gt;0. Voltar&lt;/div&gt;&lt;div&gt;Opção:&amp;nbsp;&lt;/div&gt;" style="text;html=1;align=left;verticalAlign=middle;whiteSpace=wrap;rounded=0;fontColor=#F5F5F5;" parent="1" vertex="1">
          <mxGeometry x="320" y="335" width="150" height="30" as="geometry" />
        </mxCell>
        <mxCell id="tPMUMzXMLzgHDQSlWnDX-7" value="" style="endArrow=classic;html=1;rounded=0;entryX=0.5;entryY=1;entryDx=0;entryDy=0;" parent="1" target="tPMUMzXMLzgHDQSlWnDX-9" edge="1">
          <mxGeometry width="50" height="50" relative="1" as="geometry">
            <mxPoint x="320" y="310" as="sourcePoint" />
            <mxPoint x="290" y="210" as="targetPoint" />
          </mxGeometry>
        </mxCell>
        <mxCell id="tPMUMzXMLzgHDQSlWnDX-8" value="&lt;b&gt;&lt;font style=&quot;font-size: 17px;&quot;&gt;1&lt;/font&gt;&lt;/b&gt;" style="text;html=1;align=center;verticalAlign=middle;whiteSpace=wrap;rounded=0;" parent="1" vertex="1">
          <mxGeometry x="222" y="240" width="60" height="30" as="geometry" />
        </mxCell>
        <mxCell id="tPMUMzXMLzgHDQSlWnDX-9" value="" style="rounded=0;whiteSpace=wrap;html=1;fillColor=#0A0A0A;" parent="1" vertex="1">
          <mxGeometry x="50" y="100" width="222" height="100" as="geometry" />
        </mxCell>
        <mxCell id="tPMUMzXMLzgHDQSlWnDX-10" value="Entre com as informações do produto:&lt;div&gt;Nome:&lt;/div&gt;&lt;div&gt;Preço:&lt;/div&gt;&lt;div&gt;Descrição:&lt;/div&gt;&lt;div&gt;Quantidade:&lt;/div&gt;&lt;div&gt;Produto registrado com o ID: 111111&lt;/div&gt;" style="text;html=1;align=left;verticalAlign=middle;whiteSpace=wrap;rounded=0;fontColor=#F5F5F5;" parent="1" vertex="1">
          <mxGeometry x="50" y="130" width="232" height="30" as="geometry" />
        </mxCell>
        <mxCell id="tPMUMzXMLzgHDQSlWnDX-11" value="&lt;b&gt;&lt;font style=&quot;font-size: 17px;&quot;&gt;2&lt;/font&gt;&lt;/b&gt;" style="text;html=1;align=center;verticalAlign=middle;whiteSpace=wrap;rounded=0;" parent="1" vertex="1">
          <mxGeometry x="351" y="260" width="60" height="30" as="geometry" />
        </mxCell>
        <mxCell id="tPMUMzXMLzgHDQSlWnDX-12" value="" style="rounded=0;whiteSpace=wrap;html=1;fillColor=#0A0A0A;" parent="1" vertex="1">
          <mxGeometry x="298" y="210" width="222" height="20" as="geometry" />
        </mxCell>
        <mxCell id="tPMUMzXMLzgHDQSlWnDX-13" value="Entre com o ID do produto: 2222" style="text;html=1;align=left;verticalAlign=middle;whiteSpace=wrap;rounded=0;fontColor=#F5F5F5;" parent="1" vertex="1">
          <mxGeometry x="298" y="205" width="232" height="30" as="geometry" />
        </mxCell>
        <mxCell id="tPMUMzXMLzgHDQSlWnDX-14" value="" style="endArrow=classic;html=1;rounded=0;entryX=0.5;entryY=1;entryDx=0;entryDy=0;exitX=0.5;exitY=0;exitDx=0;exitDy=0;" parent="1" source="tPMUMzXMLzgHDQSlWnDX-5" target="tPMUMzXMLzgHDQSlWnDX-12" edge="1">
          <mxGeometry width="50" height="50" relative="1" as="geometry">
            <mxPoint x="330" y="320" as="sourcePoint" />
            <mxPoint x="171" y="210" as="targetPoint" />
          </mxGeometry>
        </mxCell>
        <mxCell id="tPMUMzXMLzgHDQSlWnDX-15" value="" style="endArrow=classic;html=1;rounded=0;exitX=0.5;exitY=0;exitDx=0;exitDy=0;" parent="1" edge="1">
          <mxGeometry width="50" height="50" relative="1" as="geometry">
            <mxPoint x="411" y="210" as="sourcePoint" />
            <mxPoint x="420" y="150" as="targetPoint" />
          </mxGeometry>
        </mxCell>
        <mxCell id="tPMUMzXMLzgHDQSlWnDX-16" value="" style="rounded=0;whiteSpace=wrap;html=1;fillColor=#0A0A0A;" parent="1" vertex="1">
          <mxGeometry x="298" y="50" width="250" height="100" as="geometry" />
        </mxCell>
        <mxCell id="tPMUMzXMLzgHDQSlWnDX-17" value="Entre com as informações do produto 2222:&lt;div&gt;Nome:&lt;/div&gt;&lt;div&gt;Preço:&lt;/div&gt;&lt;div&gt;Descrição:&lt;/div&gt;&lt;div&gt;Quantidade:&lt;/div&gt;&lt;div&gt;Produto 2222 editado&lt;/div&gt;" style="text;html=1;align=left;verticalAlign=middle;whiteSpace=wrap;rounded=0;fontColor=#F5F5F5;" parent="1" vertex="1">
          <mxGeometry x="298" y="80" width="250" height="30" as="geometry" />
        </mxCell>
        <mxCell id="tPMUMzXMLzgHDQSlWnDX-18" value="&lt;b&gt;&lt;font style=&quot;font-size: 17px;&quot;&gt;3&lt;/font&gt;&lt;/b&gt;" style="text;html=1;align=center;verticalAlign=middle;whiteSpace=wrap;rounded=0;" parent="1" vertex="1">
          <mxGeometry x="508" y="250" width="60" height="30" as="geometry" />
        </mxCell>
        <mxCell id="tPMUMzXMLzgHDQSlWnDX-19" value="" style="rounded=0;whiteSpace=wrap;html=1;fillColor=#0A0A0A;" parent="1" vertex="1">
          <mxGeometry x="550" y="210" width="222" height="20" as="geometry" />
        </mxCell>
        <mxCell id="tPMUMzXMLzgHDQSlWnDX-20" value="Entre com o ID do produto: 3333" style="text;html=1;align=left;verticalAlign=middle;whiteSpace=wrap;rounded=0;fontColor=#F5F5F5;" parent="1" vertex="1">
          <mxGeometry x="550" y="205" width="232" height="30" as="geometry" />
        </mxCell>
        <mxCell id="tPMUMzXMLzgHDQSlWnDX-21" value="" style="endArrow=classic;html=1;rounded=0;entryX=0.5;entryY=1;entryDx=0;entryDy=0;exitX=1;exitY=0;exitDx=0;exitDy=0;" parent="1" source="tPMUMzXMLzgHDQSlWnDX-5" target="tPMUMzXMLzgHDQSlWnDX-19" edge="1">
          <mxGeometry width="50" height="50" relative="1" as="geometry">
            <mxPoint x="633" y="310" as="sourcePoint" />
            <mxPoint x="423" y="210" as="targetPoint" />
          </mxGeometry>
        </mxCell>
        <mxCell id="tPMUMzXMLzgHDQSlWnDX-22" value="" style="rounded=0;whiteSpace=wrap;html=1;fillColor=#0A0A0A;" parent="1" vertex="1">
          <mxGeometry x="560" y="135" width="222" height="20" as="geometry" />
        </mxCell>
        <mxCell id="tPMUMzXMLzgHDQSlWnDX-23" value="Produto de ID 3333 deletado" style="text;html=1;align=left;verticalAlign=middle;whiteSpace=wrap;rounded=0;fontColor=#F5F5F5;" parent="1" vertex="1">
          <mxGeometry x="560" y="130" width="232" height="30" as="geometry" />
        </mxCell>
        <mxCell id="tPMUMzXMLzgHDQSlWnDX-24" value="" style="endArrow=classic;html=1;rounded=0;exitX=0.5;exitY=0;exitDx=0;exitDy=0;entryX=0.435;entryY=0.9;entryDx=0;entryDy=0;entryPerimeter=0;" parent="1" target="tPMUMzXMLzgHDQSlWnDX-23" edge="1">
          <mxGeometry width="50" height="50" relative="1" as="geometry">
            <mxPoint x="661.5" y="215" as="sourcePoint" />
            <mxPoint x="670.5" y="155" as="targetPoint" />
          </mxGeometry>
        </mxCell>
        <mxCell id="tPMUMzXMLzgHDQSlWnDX-25" value="" style="rounded=0;whiteSpace=wrap;html=1;fillColor=#0A0A0A;" parent="1" vertex="1">
          <mxGeometry x="56" y="680" width="220" height="130" as="geometry" />
        </mxCell>
        <mxCell id="tPMUMzXMLzgHDQSlWnDX-26" value="" style="endArrow=classic;html=1;rounded=0;entryX=0.5;entryY=0;entryDx=0;entryDy=0;exitX=0;exitY=1;exitDx=0;exitDy=0;" parent="1" source="tPMUMzXMLzgHDQSlWnDX-1" target="tPMUMzXMLzgHDQSlWnDX-25" edge="1">
          <mxGeometry width="50" height="50" relative="1" as="geometry">
            <mxPoint x="446" y="550" as="sourcePoint" />
            <mxPoint x="396" y="390" as="targetPoint" />
          </mxGeometry>
        </mxCell>
        <mxCell id="tPMUMzXMLzgHDQSlWnDX-27" value="&lt;div&gt;Análise de vendas (últimos 30 dias):&lt;/div&gt;1. Visualizar faturamento total&lt;div&gt;2. Calcular e visualizar faturamento por produto&lt;/div&gt;&lt;div&gt;3. Visualizar vendas&lt;/div&gt;&lt;div&gt;4. V&lt;span style=&quot;background-color: initial;&quot;&gt;isualizar itens mais vendidos&lt;/span&gt;&lt;/div&gt;&lt;div&gt;&lt;span style=&quot;background-color: initial;&quot;&gt;0. Voltar&lt;/span&gt;&lt;/div&gt;&lt;div&gt;&lt;span style=&quot;background-color: initial;&quot;&gt;Opção:&amp;nbsp;&lt;/span&gt;&lt;br&gt;&lt;/div&gt;" style="text;html=1;align=left;verticalAlign=middle;whiteSpace=wrap;rounded=0;fontColor=#F5F5F5;" parent="1" vertex="1">
          <mxGeometry x="66" y="680" width="204" height="120" as="geometry" />
        </mxCell>
        <mxCell id="tPMUMzXMLzgHDQSlWnDX-28" style="edgeStyle=orthogonalEdgeStyle;rounded=0;orthogonalLoop=1;jettySize=auto;html=1;exitX=0.5;exitY=1;exitDx=0;exitDy=0;" parent="1" source="tPMUMzXMLzgHDQSlWnDX-27" target="tPMUMzXMLzgHDQSlWnDX-27" edge="1">
          <mxGeometry relative="1" as="geometry" />
        </mxCell>
        <mxCell id="tPMUMzXMLzgHDQSlWnDX-190" value="&lt;b&gt;&lt;font style=&quot;font-size: 17px;&quot;&gt;2&lt;/font&gt;&lt;/b&gt;" style="text;html=1;align=center;verticalAlign=middle;whiteSpace=wrap;rounded=0;" parent="1" vertex="1">
          <mxGeometry x="238" y="630" width="60" height="30" as="geometry" />
        </mxCell>
        <mxCell id="tPMUMzXMLzgHDQSlWnDX-191" value="" style="endArrow=classic;html=1;rounded=0;entryX=0.5;entryY=0;entryDx=0;entryDy=0;exitX=0;exitY=1;exitDx=0;exitDy=0;" parent="1" edge="1">
          <mxGeometry width="50" height="50" relative="1" as="geometry">
            <mxPoint x="56" y="810" as="sourcePoint" />
            <mxPoint x="-136" y="910" as="targetPoint" />
          </mxGeometry>
        </mxCell>
        <mxCell id="tPMUMzXMLzgHDQSlWnDX-193" value="&lt;b&gt;&lt;font style=&quot;font-size: 17px;&quot;&gt;1&lt;/font&gt;&lt;/b&gt;" style="text;html=1;align=center;verticalAlign=middle;whiteSpace=wrap;rounded=0;" parent="1" vertex="1">
          <mxGeometry x="-60" y="830" width="60" height="30" as="geometry" />
        </mxCell>
        <mxCell id="tPMUMzXMLzgHDQSlWnDX-194" value="" style="rounded=0;whiteSpace=wrap;html=1;fillColor=#0A0A0A;" parent="1" vertex="1">
          <mxGeometry x="-270" y="910" width="190" height="30" as="geometry" />
        </mxCell>
        <mxCell id="tPMUMzXMLzgHDQSlWnDX-195" value="&lt;div&gt;Faturamento total: R$ 1000,00&lt;/div&gt;" style="text;html=1;align=left;verticalAlign=middle;whiteSpace=wrap;rounded=0;fontColor=#F5F5F5;" parent="1" vertex="1">
          <mxGeometry x="-265" y="910" width="190" height="30" as="geometry" />
        </mxCell>
        <mxCell id="tPMUMzXMLzgHDQSlWnDX-196" style="edgeStyle=orthogonalEdgeStyle;rounded=0;orthogonalLoop=1;jettySize=auto;html=1;exitX=0.5;exitY=1;exitDx=0;exitDy=0;" parent="1" source="tPMUMzXMLzgHDQSlWnDX-195" target="tPMUMzXMLzgHDQSlWnDX-195" edge="1">
          <mxGeometry relative="1" as="geometry" />
        </mxCell>
        <mxCell id="tPMUMzXMLzgHDQSlWnDX-198" value="&lt;b&gt;&lt;font style=&quot;font-size: 17px;&quot;&gt;2&lt;/font&gt;&lt;/b&gt;" style="text;html=1;align=center;verticalAlign=middle;whiteSpace=wrap;rounded=0;" parent="1" vertex="1">
          <mxGeometry x="40" y="850" width="60" height="30" as="geometry" />
        </mxCell>
        <mxCell id="tPMUMzXMLzgHDQSlWnDX-199" value="" style="rounded=0;whiteSpace=wrap;html=1;fillColor=#0A0A0A;" parent="1" vertex="1">
          <mxGeometry x="-40" y="910" width="190" height="30" as="geometry" />
        </mxCell>
        <mxCell id="tPMUMzXMLzgHDQSlWnDX-200" value="&lt;div&gt;Entre com o ID do produto: 1111&lt;/div&gt;" style="text;html=1;align=left;verticalAlign=middle;whiteSpace=wrap;rounded=0;fontColor=#F5F5F5;" parent="1" vertex="1">
          <mxGeometry x="-35" y="910" width="190" height="30" as="geometry" />
        </mxCell>
        <mxCell id="tPMUMzXMLzgHDQSlWnDX-201" style="edgeStyle=orthogonalEdgeStyle;rounded=0;orthogonalLoop=1;jettySize=auto;html=1;exitX=0.5;exitY=1;exitDx=0;exitDy=0;" parent="1" source="tPMUMzXMLzgHDQSlWnDX-200" target="tPMUMzXMLzgHDQSlWnDX-200" edge="1">
          <mxGeometry relative="1" as="geometry" />
        </mxCell>
        <mxCell id="tPMUMzXMLzgHDQSlWnDX-202" value="" style="endArrow=classic;html=1;rounded=0;entryX=0.5;entryY=0;entryDx=0;entryDy=0;exitX=0;exitY=1;exitDx=0;exitDy=0;" parent="1" target="tPMUMzXMLzgHDQSlWnDX-200" edge="1">
          <mxGeometry width="50" height="50" relative="1" as="geometry">
            <mxPoint x="112" y="810" as="sourcePoint" />
            <mxPoint x="-80" y="910" as="targetPoint" />
          </mxGeometry>
        </mxCell>
        <mxCell id="tPMUMzXMLzgHDQSlWnDX-204" value="" style="endArrow=classic;html=1;rounded=0;exitX=0;exitY=1;exitDx=0;exitDy=0;" parent="1" edge="1">
          <mxGeometry width="50" height="50" relative="1" as="geometry">
            <mxPoint x="56" y="940" as="sourcePoint" />
            <mxPoint x="56" y="1030" as="targetPoint" />
          </mxGeometry>
        </mxCell>
        <mxCell id="tPMUMzXMLzgHDQSlWnDX-206" value="" style="rounded=0;whiteSpace=wrap;html=1;fillColor=#0A0A0A;" parent="1" vertex="1">
          <mxGeometry x="-50" y="1030" width="230" height="20" as="geometry" />
        </mxCell>
        <mxCell id="tPMUMzXMLzgHDQSlWnDX-207" value="&lt;div&gt;O produto de ID 1111 faturou: R$ 100,00&lt;/div&gt;" style="text;html=1;align=left;verticalAlign=middle;whiteSpace=wrap;rounded=0;fontColor=#F5F5F5;" parent="1" vertex="1">
          <mxGeometry x="-45" y="1025" width="230" height="30" as="geometry" />
        </mxCell>
        <mxCell id="tPMUMzXMLzgHDQSlWnDX-208" style="edgeStyle=orthogonalEdgeStyle;rounded=0;orthogonalLoop=1;jettySize=auto;html=1;exitX=0.5;exitY=1;exitDx=0;exitDy=0;" parent="1" source="tPMUMzXMLzgHDQSlWnDX-207" target="tPMUMzXMLzgHDQSlWnDX-207" edge="1">
          <mxGeometry relative="1" as="geometry" />
        </mxCell>
        <mxCell id="tPMUMzXMLzgHDQSlWnDX-209" value="&lt;b&gt;&lt;font style=&quot;font-size: 17px;&quot;&gt;3&lt;/font&gt;&lt;/b&gt;" style="text;html=1;align=center;verticalAlign=middle;whiteSpace=wrap;rounded=0;" parent="1" vertex="1">
          <mxGeometry x="222" y="840" width="60" height="30" as="geometry" />
        </mxCell>
        <mxCell id="tPMUMzXMLzgHDQSlWnDX-212" style="edgeStyle=orthogonalEdgeStyle;rounded=0;orthogonalLoop=1;jettySize=auto;html=1;exitX=0.5;exitY=1;exitDx=0;exitDy=0;" parent="1" edge="1">
          <mxGeometry relative="1" as="geometry">
            <mxPoint x="325" y="939" as="sourcePoint" />
            <mxPoint x="325" y="939" as="targetPoint" />
          </mxGeometry>
        </mxCell>
        <mxCell id="tPMUMzXMLzgHDQSlWnDX-213" value="" style="endArrow=classic;html=1;rounded=0;entryX=0.295;entryY=0.033;entryDx=0;entryDy=0;exitX=0;exitY=1;exitDx=0;exitDy=0;entryPerimeter=0;" parent="1" edge="1">
          <mxGeometry width="50" height="50" relative="1" as="geometry">
            <mxPoint x="185" y="809" as="sourcePoint" />
            <mxPoint x="286.0500000000002" y="909.99" as="targetPoint" />
          </mxGeometry>
        </mxCell>
        <mxCell id="tPMUMzXMLzgHDQSlWnDX-216" value="" style="rounded=0;whiteSpace=wrap;html=1;fillColor=#0A0A0A;" parent="1" vertex="1">
          <mxGeometry x="230" y="910" width="190" height="70" as="geometry" />
        </mxCell>
        <mxCell id="tPMUMzXMLzgHDQSlWnDX-217" value="&lt;div&gt;&lt;span style=&quot;background-color: initial;&quot;&gt;20/10 - R$ 1000,00&lt;/span&gt;&lt;br&gt;&lt;/div&gt;&lt;div&gt;19/10 - R$500,00&lt;/div&gt;" style="text;html=1;align=left;verticalAlign=top;whiteSpace=wrap;rounded=0;fontColor=#F5F5F5;horizontal=1;" parent="1" vertex="1">
          <mxGeometry x="238" y="910" width="190" height="60" as="geometry" />
        </mxCell>
        <mxCell id="tPMUMzXMLzgHDQSlWnDX-218" style="edgeStyle=orthogonalEdgeStyle;rounded=0;orthogonalLoop=1;jettySize=auto;html=1;exitX=0.5;exitY=1;exitDx=0;exitDy=0;" parent="1" source="tPMUMzXMLzgHDQSlWnDX-217" target="tPMUMzXMLzgHDQSlWnDX-217" edge="1">
          <mxGeometry relative="1" as="geometry" />
        </mxCell>
        <mxCell id="tPMUMzXMLzgHDQSlWnDX-219" value="&lt;b&gt;&lt;font style=&quot;font-size: 17px;&quot;&gt;4&lt;/font&gt;&lt;/b&gt;" style="text;html=1;align=center;verticalAlign=middle;whiteSpace=wrap;rounded=0;" parent="1" vertex="1">
          <mxGeometry x="358" y="830" width="60" height="30" as="geometry" />
        </mxCell>
        <mxCell id="tPMUMzXMLzgHDQSlWnDX-220" style="edgeStyle=orthogonalEdgeStyle;rounded=0;orthogonalLoop=1;jettySize=auto;html=1;exitX=0.5;exitY=1;exitDx=0;exitDy=0;" parent="1" edge="1">
          <mxGeometry relative="1" as="geometry">
            <mxPoint x="573" y="938" as="sourcePoint" />
            <mxPoint x="573" y="938" as="targetPoint" />
          </mxGeometry>
        </mxCell>
        <mxCell id="tPMUMzXMLzgHDQSlWnDX-221" value="" style="rounded=0;whiteSpace=wrap;html=1;fillColor=#0A0A0A;" parent="1" vertex="1">
          <mxGeometry x="478" y="909" width="190" height="81" as="geometry" />
        </mxCell>
        <mxCell id="tPMUMzXMLzgHDQSlWnDX-222" value="&lt;div&gt;Produtos mais vendidos:&lt;/div&gt;&lt;div&gt;1. Produto a: 100 vendas&lt;/div&gt;&lt;div&gt;2. Produto b: 98 vendas&lt;/div&gt;&lt;div&gt;3. Produto c: 80 vendas&lt;/div&gt;" style="text;html=1;align=left;verticalAlign=top;whiteSpace=wrap;rounded=0;fontColor=#F5F5F5;horizontal=1;" parent="1" vertex="1">
          <mxGeometry x="486" y="909" width="190" height="151" as="geometry" />
        </mxCell>
        <mxCell id="tPMUMzXMLzgHDQSlWnDX-223" style="edgeStyle=orthogonalEdgeStyle;rounded=0;orthogonalLoop=1;jettySize=auto;html=1;exitX=0.5;exitY=1;exitDx=0;exitDy=0;" parent="1" source="tPMUMzXMLzgHDQSlWnDX-222" target="tPMUMzXMLzgHDQSlWnDX-222" edge="1">
          <mxGeometry relative="1" as="geometry" />
        </mxCell>
        <mxCell id="tPMUMzXMLzgHDQSlWnDX-224" value="" style="endArrow=classic;html=1;rounded=0;entryX=0;entryY=0;entryDx=0;entryDy=0;exitX=0;exitY=1;exitDx=0;exitDy=0;" parent="1" target="tPMUMzXMLzgHDQSlWnDX-221" edge="1">
          <mxGeometry width="50" height="50" relative="1" as="geometry">
            <mxPoint x="272" y="794.51" as="sourcePoint" />
            <mxPoint x="373.0500000000002" y="895.5" as="targetPoint" />
          </mxGeometry>
        </mxCell>
        <mxCell id="tPMUMzXMLzgHDQSlWnDX-225" value="" style="rounded=0;whiteSpace=wrap;html=1;fillColor=#0A0A0A;" parent="1" vertex="1">
          <mxGeometry x="710" y="480" width="220" height="110" as="geometry" />
        </mxCell>
        <mxCell id="tPMUMzXMLzgHDQSlWnDX-226" value="&lt;div&gt;Entre com as informações da venda:&lt;/div&gt;&lt;div&gt;ID do produto:&lt;/div&gt;&lt;div&gt;Nome do cliente:&lt;/div&gt;&lt;div&gt;Credencial do vendedor:&lt;/div&gt;&lt;div&gt;Quantidade do produto:&lt;/div&gt;&lt;div&gt;Venda Registrada&lt;/div&gt;" style="text;html=1;align=left;verticalAlign=middle;whiteSpace=wrap;rounded=0;fontColor=#F5F5F5;" parent="1" vertex="1">
          <mxGeometry x="720" y="520" width="210" height="30" as="geometry" />
        </mxCell>
        <mxCell id="tPMUMzXMLzgHDQSlWnDX-227" style="edgeStyle=orthogonalEdgeStyle;rounded=0;orthogonalLoop=1;jettySize=auto;html=1;exitX=0.5;exitY=1;exitDx=0;exitDy=0;" parent="1" source="tPMUMzXMLzgHDQSlWnDX-226" target="tPMUMzXMLzgHDQSlWnDX-226" edge="1">
          <mxGeometry relative="1" as="geometry" />
        </mxCell>
        <mxCell id="tPMUMzXMLzgHDQSlWnDX-228" value="" style="endArrow=classic;html=1;rounded=0;entryX=0;entryY=0.5;entryDx=0;entryDy=0;exitX=0;exitY=1;exitDx=0;exitDy=0;" parent="1" target="tPMUMzXMLzgHDQSlWnDX-225" edge="1">
          <mxGeometry width="50" height="50" relative="1" as="geometry">
            <mxPoint x="508" y="570" as="sourcePoint" />
            <mxPoint x="316" y="670" as="targetPoint" />
          </mxGeometry>
        </mxCell>
        <mxCell id="tPMUMzXMLzgHDQSlWnDX-230" value="" style="endArrow=none;html=1;rounded=0;entryX=0.553;entryY=1.013;entryDx=0;entryDy=0;entryPerimeter=0;startArrow=classic;startFill=1;endFill=0;" parent="1" edge="1">
          <mxGeometry width="50" height="50" relative="1" as="geometry">
            <mxPoint x="417" y="539" as="sourcePoint" />
            <mxPoint x="370" y="390" as="targetPoint" />
          </mxGeometry>
        </mxCell>
        <mxCell id="tPMUMzXMLzgHDQSlWnDX-231" value="&lt;b&gt;&lt;font style=&quot;font-size: 17px;&quot;&gt;0&lt;/font&gt;&lt;/b&gt;" style="text;html=1;align=center;verticalAlign=middle;whiteSpace=wrap;rounded=0;" parent="1" vertex="1">
          <mxGeometry x="350" y="450" width="60" height="30" as="geometry" />
        </mxCell>
        <mxCell id="tPMUMzXMLzgHDQSlWnDX-232" value="" style="endArrow=none;html=1;rounded=0;entryX=0.5;entryY=1;entryDx=0;entryDy=0;startArrow=classic;startFill=1;endFill=0;exitX=0.007;exitY=0.113;exitDx=0;exitDy=0;exitPerimeter=0;" parent="1" source="tPMUMzXMLzgHDQSlWnDX-5" edge="1">
          <mxGeometry width="50" height="50" relative="1" as="geometry">
            <mxPoint x="298" y="315" as="sourcePoint" />
            <mxPoint x="139" y="205" as="targetPoint" />
          </mxGeometry>
        </mxCell>
        <mxCell id="tPMUMzXMLzgHDQSlWnDX-234" value="" style="endArrow=none;html=1;rounded=0;exitX=0.5;exitY=0;exitDx=0;exitDy=0;startArrow=classic;startFill=1;endFill=0;" parent="1" edge="1">
          <mxGeometry width="50" height="50" relative="1" as="geometry">
            <mxPoint x="421.5" y="210" as="sourcePoint" />
            <mxPoint x="430.5" y="150" as="targetPoint" />
          </mxGeometry>
        </mxCell>
        <mxCell id="tPMUMzXMLzgHDQSlWnDX-235" value="" style="endArrow=none;html=1;rounded=0;exitX=0.5;exitY=0;exitDx=0;exitDy=0;startArrow=classic;startFill=1;endFill=0;entryX=0.547;entryY=1.033;entryDx=0;entryDy=0;entryPerimeter=0;" parent="1" target="tPMUMzXMLzgHDQSlWnDX-13" edge="1">
          <mxGeometry width="50" height="50" relative="1" as="geometry">
            <mxPoint x="396" y="310" as="sourcePoint" />
            <mxPoint x="405" y="250" as="targetPoint" />
          </mxGeometry>
        </mxCell>
        <mxCell id="tPMUMzXMLzgHDQSlWnDX-236" value="" style="endArrow=none;html=1;rounded=0;exitX=0.5;exitY=0;exitDx=0;exitDy=0;entryX=0.435;entryY=0.9;entryDx=0;entryDy=0;entryPerimeter=0;startArrow=classic;startFill=1;endFill=0;" parent="1" edge="1">
          <mxGeometry width="50" height="50" relative="1" as="geometry">
            <mxPoint x="676.5" y="213" as="sourcePoint" />
            <mxPoint x="676" y="155" as="targetPoint" />
          </mxGeometry>
        </mxCell>
        <mxCell id="tPMUMzXMLzgHDQSlWnDX-238" value="" style="endArrow=none;html=1;rounded=0;entryX=0.534;entryY=1;entryDx=0;entryDy=0;exitX=0.993;exitY=0.163;exitDx=0;exitDy=0;exitPerimeter=0;entryPerimeter=0;startArrow=classic;startFill=1;endFill=0;" parent="1" source="tPMUMzXMLzgHDQSlWnDX-5" target="tPMUMzXMLzgHDQSlWnDX-20" edge="1">
          <mxGeometry width="50" height="50" relative="1" as="geometry">
            <mxPoint x="466" y="320" as="sourcePoint" />
            <mxPoint x="671" y="240" as="targetPoint" />
          </mxGeometry>
        </mxCell>
        <mxCell id="tPMUMzXMLzgHDQSlWnDX-239" value="" style="endArrow=none;html=1;rounded=0;entryX=0.75;entryY=0;entryDx=0;entryDy=0;exitX=0;exitY=1;exitDx=0;exitDy=0;startArrow=classic;startFill=1;endFill=0;" parent="1" edge="1" target="tPMUMzXMLzgHDQSlWnDX-25">
          <mxGeometry width="50" height="50" relative="1" as="geometry">
            <mxPoint x="392" y="620" as="sourcePoint" />
            <mxPoint x="200" y="700" as="targetPoint" />
          </mxGeometry>
        </mxCell>
        <mxCell id="tPMUMzXMLzgHDQSlWnDX-240" value="&lt;b&gt;&lt;font style=&quot;font-size: 17px;&quot;&gt;0&lt;/font&gt;&lt;/b&gt;" style="text;html=1;align=center;verticalAlign=middle;whiteSpace=wrap;rounded=0;" parent="1" vertex="1">
          <mxGeometry x="272" y="660" width="60" height="30" as="geometry" />
        </mxCell>
        <mxCell id="tPMUMzXMLzgHDQSlWnDX-241" value="" style="endArrow=none;html=1;rounded=0;entryX=0.832;entryY=-0.067;entryDx=0;entryDy=0;startArrow=classic;startFill=1;endFill=0;entryPerimeter=0;" parent="1" target="tPMUMzXMLzgHDQSlWnDX-195" edge="1">
          <mxGeometry width="50" height="50" relative="1" as="geometry">
            <mxPoint x="60" y="820" as="sourcePoint" />
            <mxPoint x="-120" y="910" as="targetPoint" />
          </mxGeometry>
        </mxCell>
        <mxCell id="tPMUMzXMLzgHDQSlWnDX-242" value="" style="endArrow=none;html=1;rounded=0;entryX=0.621;entryY=0.033;entryDx=0;entryDy=0;startArrow=classic;startFill=1;endFill=0;entryPerimeter=0;" parent="1" target="tPMUMzXMLzgHDQSlWnDX-200" edge="1">
          <mxGeometry width="50" height="50" relative="1" as="geometry">
            <mxPoint x="130" y="810" as="sourcePoint" />
            <mxPoint x="90" y="900" as="targetPoint" />
          </mxGeometry>
        </mxCell>
        <mxCell id="tPMUMzXMLzgHDQSlWnDX-243" value="" style="endArrow=none;html=1;rounded=0;exitX=0;exitY=1;exitDx=0;exitDy=0;startArrow=classic;startFill=1;endFill=0;" parent="1" edge="1">
          <mxGeometry width="50" height="50" relative="1" as="geometry">
            <mxPoint x="69.5" y="940" as="sourcePoint" />
            <mxPoint x="69.5" y="1030" as="targetPoint" />
          </mxGeometry>
        </mxCell>
        <mxCell id="tPMUMzXMLzgHDQSlWnDX-244" value="" style="endArrow=none;html=1;rounded=0;entryX=0.295;entryY=0.033;entryDx=0;entryDy=0;exitX=0;exitY=1;exitDx=0;exitDy=0;entryPerimeter=0;startArrow=classic;startFill=1;endFill=0;" parent="1" edge="1">
          <mxGeometry width="50" height="50" relative="1" as="geometry">
            <mxPoint x="170" y="810" as="sourcePoint" />
            <mxPoint x="271.0500000000002" y="910.99" as="targetPoint" />
          </mxGeometry>
        </mxCell>
        <mxCell id="tPMUMzXMLzgHDQSlWnDX-245" value="" style="endArrow=none;html=1;rounded=0;entryX=0;entryY=0;entryDx=0;entryDy=0;exitX=0;exitY=1;exitDx=0;exitDy=0;startArrow=classic;startFill=1;endFill=0;" parent="1" edge="1">
          <mxGeometry width="50" height="50" relative="1" as="geometry">
            <mxPoint x="272" y="807.75" as="sourcePoint" />
            <mxPoint x="478" y="922.24" as="targetPoint" />
          </mxGeometry>
        </mxCell>
        <mxCell id="cyUcM8L37RlCPQi1FbEP-1" value="&lt;b&gt;&lt;font style=&quot;font-size: 17px;&quot;&gt;3&lt;/font&gt;&lt;/b&gt;" style="text;html=1;align=center;verticalAlign=middle;whiteSpace=wrap;rounded=0;" vertex="1" parent="1">
          <mxGeometry x="580" y="530" width="60" height="30" as="geometry" />
        </mxCell>
        <mxCell id="cyUcM8L37RlCPQi1FbEP-2" value="" style="endArrow=none;html=1;rounded=0;entryX=0;entryY=0.5;entryDx=0;entryDy=0;exitX=0;exitY=1;exitDx=0;exitDy=0;endFill=0;startArrow=classic;startFill=1;" edge="1" parent="1">
          <mxGeometry width="50" height="50" relative="1" as="geometry">
            <mxPoint x="508" y="585" as="sourcePoint" />
            <mxPoint x="710" y="550" as="targetPoint" />
          </mxGeometry>
        </mxCell>
      </root>
    </mxGraphModel>
  </diagram>
</mxfile>
